<svg width="280" height="670" viewBox="0 0 280 670" fill="none" xmlns="http://www.w3.org/2000/svg">
<path d="M94.6612 0.00015845C92.9333 -0.141706 91.2032 0.244799 89.6999 1.10846C88.2239 2.11926 87.2936 3.89007 86.344 5.53792C82.7133 11.9135 77.7981 17.4657 71.9098 21.8426C67.6208 24.9846 62.1681 28.9022 62.9019 34.6953C63.289 36.6084 63.9957 38.4425 64.9924 40.1208C68.949 48.1078 79.746 54.28 78.684 63.3939C82.615 56.8129 77.357 53.5588 81.288 46.978C83.16 43.844 86.4121 40.3063 89.2385 42.2745C90.1849 42.9335 90.8063 44.1154 91.7917 44.6936C94.1429 46.0733 96.6443 43.4356 98.7256 41.5673C105.902 35.1247 116.109 36.8125 125.039 38.8199C129.256 39.7675 133.887 41.0109 136.379 45.0406C139.656 50.3388 133.266 56.0609 131.651 62.0511C131.519 62.5615 131.513 63.0962 131.633 63.6096C131.753 64.1229 131.995 64.5996 132.34 64.9988C132.684 65.398 133.12 65.7079 133.61 65.902C134.1 66.0961 134.63 66.1685 135.154 66.1132C137.834 65.8489 141.008 65.6322 141.167 64.4563C144.538 64.5763 148.669 64.1944 150.114 60.6838C150.556 59.2947 150.789 57.848 150.807 56.3906C151.337 50.4934 153.84 45.1134 155.498 39.5006C157.156 33.8879 157.877 27.3101 155.079 22.3338C154.08 20.6781 152.845 19.1771 151.413 17.8783C135.534 2.51152 114.656 -0.0226516 94.6612 0.00015845Z" fill="#2C3333"/>
<path d="M82.1373 74.9052C82.1373 74.9052 85.5907 103.684 72.9282 105.986C60.2657 108.288 84.4395 147.427 84.4395 147.427L141.996 154.334L128.183 108.288C128.183 108.288 118.974 104.835 124.729 81.812C130.485 58.7893 82.1373 74.9052 82.1373 74.9052Z" fill="#FFB8B8"/>
<path d="M47.0283 569.318L51.6333 632.631H75.8063L68.9003 569.318H47.0283Z" fill="#FFB8B8"/>
<path d="M224.303 449.6L227.756 502.552L254.233 491.041L243.872 447.298L224.303 449.6Z" fill="#FFB8B8"/>
<path d="M29.7607 327.58C29.7607 327.58 30.9119 394.345 37.8187 416.217C44.7256 438.089 43.5744 439.24 42.4233 442.693C41.2721 446.147 40.121 443.844 40.121 449.6C40.121 455.356 37.8187 546.295 40.121 554.353C42.4233 562.411 33.2142 576.225 40.121 577.376C47.0278 578.527 79.2596 577.376 80.4108 570.469C81.5619 563.563 71.2017 561.26 75.8062 556.656C80.4108 552.051 87.3176 457.658 87.3176 457.658L103.434 392.043L133.363 357.509H196.675L216.245 433.484C216.245 433.484 208.187 455.356 213.943 455.356C219.698 455.356 254.232 462.263 254.232 436.938C254.232 411.613 242.721 336.789 240.419 334.486C238.116 332.184 241.57 324.126 238.116 320.673C234.663 317.219 194.373 293.046 179.408 288.441C164.444 283.836 143.451 278.356 143.451 278.356L29.7607 327.58Z" fill="#2C3333"/>
<path d="M254.233 481.832C254.233 481.832 236.966 476.076 228.908 493.343C220.85 510.61 224.303 515.215 224.303 515.215C224.303 515.215 250.779 524.424 255.384 519.819C257.387 517.816 263.748 517.12 270.296 516.973C280.269 516.749 282.923 502.64 273.504 499.354C273.223 499.256 272.939 499.171 272.651 499.099C263.442 496.797 254.233 481.832 254.233 481.832Z" fill="#2C3333"/>
<path d="M108.038 93.8989C127.111 93.8989 142.572 78.4375 142.572 59.3649C142.572 40.2922 127.111 24.8308 108.038 24.8308C88.9653 24.8308 73.5039 40.2922 73.5039 59.3649C73.5039 78.4375 88.9653 93.8989 108.038 93.8989Z" fill="#FFB8B8"/>
<path d="M63.1436 120.375C63.1436 120.375 119.549 131.886 133.363 113.468C147.177 95.0501 152.932 165.269 152.932 165.269L159.839 238.942L149.479 279.232C149.479 279.232 95.3755 322.975 78.1084 326.428C60.8414 329.882 34.3652 332.184 34.3652 332.184C34.3652 332.184 42.4232 204.408 42.4232 202.106C42.4232 199.803 63.1436 120.375 63.1436 120.375Z" fill="#D5D5D5"/>
<path d="M80.2986 98.7859C80.2986 98.7859 67.7489 91.5967 64.2955 98.5035C60.8421 105.41 28.6102 122.677 25.1568 122.677C21.7034 122.677 32.0637 218.222 27.4591 229.733C22.8546 241.244 0.982977 325.277 13.6455 332.184C26.308 339.091 17.0989 325.277 29.7614 342.544C42.4239 359.811 104.585 359.811 108.039 352.905C111.492 345.998 80.4114 294.197 86.1671 245.849C91.9227 197.501 101.132 130.735 93.0739 121.526C85.0159 112.317 80.2986 98.7859 80.2986 98.7859Z" fill="#CBE4DE"/>
<path d="M121.852 106.561L123.455 101.043C123.455 101.043 171.35 116.922 173.653 127.282C175.955 137.642 174.804 210.164 166.746 215.919C158.688 221.675 147.177 230.884 155.235 244.698C163.292 258.511 172.502 273.476 179.408 274.627C186.315 275.778 198.978 283.836 195.524 291.894C192.071 299.952 150.63 284.988 150.63 284.988C150.63 284.988 123.003 264.267 124.154 232.035C125.305 199.803 121.852 106.561 121.852 106.561Z" fill="#CBE4DE"/>
<path d="M162.142 242.396L134.514 294.197C134.514 294.197 94.2246 335.638 117.247 340.242C140.27 344.847 152.933 302.255 152.933 302.255L182.862 259.663L162.142 242.396Z" fill="#FFB8B8"/>
<path d="M96.3434 9.03591C94.9514 8.93277 93.5572 9.2032 92.3047 9.81925C91.1723 10.6463 90.2389 11.7159 89.5729 12.95C86.5025 17.5685 82.5001 21.4939 77.8228 24.474C74.3314 26.6947 69.8927 29.4637 70.49 33.5582C70.8143 34.931 71.3914 36.2314 72.1918 37.3929C75.4238 43.0951 76.7104 49.6949 75.857 56.1935L85.4571 42.2395C86.981 40.0245 89.6284 37.5241 91.9292 38.9151C92.6996 39.3809 93.2054 40.2163 94.0076 40.625C95.9216 41.6002 97.9578 39.7359 99.652 38.4153C105.494 33.8617 113.803 35.0546 121.073 36.4734C124.505 37.1432 128.275 38.022 130.304 40.8702C133.675 45.6033 130.155 52.4423 132.122 57.9102C132.673 57.5245 133.141 57.0322 133.498 56.4624C133.855 55.8926 134.094 55.2569 134.201 54.593C136.946 54.6779 140.308 54.408 141.484 51.9267C141.842 50.9542 142.033 49.9283 142.048 48.8923C142.48 44.7242 144.517 40.9216 145.867 36.9546C147.217 32.9875 147.804 28.3384 145.526 24.8212C144.693 23.6295 143.687 22.5681 142.542 21.672C129.615 10.8109 112.62 9.01979 96.3434 9.03591Z" fill="#2C3333"/>
<path d="M162.142 122.677L172.867 125.524C172.867 125.524 197.827 189.443 192.071 233.186C186.316 276.93 182.862 267.721 182.862 267.721C182.862 267.721 173.653 247 152.933 251.605L162.142 122.677Z" fill="#CBE4DE"/>
<path d="M48.6233 624.263C45.8474 628.036 46.4039 633.428 43.945 637.414C41.8136 640.869 37.7966 642.681 35.1306 645.743C34.2799 646.76 33.5216 647.851 32.8645 649.003C30.3914 653.145 28.3812 658.454 30.8169 662.619C32.7762 665.969 36.8947 667.279 40.6719 668.171C45.4459 669.299 50.4062 670.202 55.2354 669.34C60.0646 668.478 64.7842 665.521 66.5061 660.927C66.8445 659.772 67.2468 658.637 67.7112 657.527C70.3286 652.374 78.5387 652.318 81.2174 647.197C83.0921 643.613 81.3688 639.28 79.6463 635.621L74.3852 624.444C72.6393 620.735 65.5615 622.868 61.8718 621.979C57.0595 620.82 52.0852 619.543 48.6233 624.263Z" fill="#2C3333"/>
<path d="M10.1914 265.418L58.5391 340.242C58.5391 340.242 88.4687 378.23 97.6777 360.963C106.887 343.696 65.4459 314.917 65.4459 314.917L34.3652 257.36L10.1914 265.418Z" fill="#FFB8B8"/>
<path d="M34.3655 124.98L25.1564 122.677C25.1564 122.677 6.73826 128.433 2.13372 152.607C-2.47081 176.781 0.982583 273.476 6.73826 274.627C12.4939 275.778 35.1655 257.791 38.7945 261.604C42.4235 265.418 30.9121 245.849 34.3655 235.489C37.8189 225.128 34.3655 124.98 34.3655 124.98Z" fill="#CBE4DE"/>
</svg>
