<svg width="269" height="221" viewBox="0 0 269 221" fill="none" xmlns="http://www.w3.org/2000/svg">
<path d="M259.414 0.456268H10.2286C8.99097 0.456112 7.76544 0.699755 6.62201 1.17329C5.47858 1.64683 4.43963 2.34099 3.56451 3.21611C2.68939 4.09123 1.99527 5.13018 1.52173 6.27361C1.04819 7.41703 0.804531 8.64255 0.804688 9.88016V177.738C0.804533 178.975 1.04819 180.201 1.52173 181.344C1.99527 182.488 2.68939 183.527 3.56451 184.402C4.43963 185.277 5.47858 185.971 6.62201 186.445C7.76544 186.918 8.99097 187.162 10.2286 187.162H104.821L101.278 209.788C101.278 209.788 81.0248 220.547 95.2651 220.864C109.505 221.18 176.593 220.864 176.593 220.864C176.593 220.864 189.567 220.864 168.998 209.472L165.664 187.162H259.414C260.652 187.162 261.877 186.918 263.021 186.445C264.164 185.971 265.203 185.277 266.078 184.402C266.953 183.527 267.647 182.488 268.121 181.344C268.594 180.201 268.838 178.975 268.838 177.738V9.88016C268.838 8.64255 268.594 7.41704 268.121 6.27361C267.647 5.13017 266.953 4.09123 266.078 3.21611C265.203 2.34099 264.164 1.64683 263.021 1.17329C261.877 0.699756 260.652 0.456108 259.414 0.456268Z" fill="#2C3333"/>
<path d="M259.819 10.4244H9.82324V150.295H259.819V10.4244Z" fill="#F2F2F2"/>
<path d="M134.822 7.57639C135.695 7.57639 136.404 6.86799 136.404 5.99414C136.404 5.12029 135.695 4.4119 134.822 4.4119C133.948 4.4119 133.239 5.12029 133.239 5.99414C133.239 6.86799 133.948 7.57639 134.822 7.57639Z" fill="#F2F2F2"/>
<path d="M134.821 180.358C138.142 180.358 140.834 177.666 140.834 174.346C140.834 171.025 138.142 168.333 134.821 168.333C131.5 168.333 128.809 171.025 128.809 174.346C128.809 177.666 131.5 180.358 134.821 180.358Z" fill="#F2F2F2"/>
<path d="M111.16 56.3627H81.4072V63.5253H111.16V56.3627Z" fill="#CBE4DE"/>
<path d="M214.191 56.3627H203.723V63.5253H214.191V56.3627Z" fill="#CBE4DE"/>
<path d="M235.128 56.3627H224.659V63.5253H235.128V56.3627Z" fill="#CBE4DE"/>
<path d="M192.703 56.3627H121.628V63.5253H192.703V56.3627Z" fill="#CBE4DE"/>
<path d="M73.6938 102.644H43.9414V109.807H73.6938V102.644Z" fill="#CBE4DE"/>
<path d="M176.725 102.644H166.257V109.807H176.725V102.644Z" fill="#CBE4DE"/>
<path d="M197.662 102.644H187.193V109.807H197.662V102.644Z" fill="#CBE4DE"/>
<path d="M155.237 102.644H84.1621V109.807H155.237V102.644Z" fill="#CBE4DE"/>
<path d="M196.56 72.3409H166.808V79.5035H196.56V72.3409Z" fill="#CBE4DE"/>
<path d="M236.781 72.3409H207.028V79.5035H236.781V72.3409Z" fill="#CBE4DE"/>
<path d="M54.4099 72.3409H43.9414V79.5035H54.4099V72.3409Z" fill="#CBE4DE"/>
<path d="M75.3463 72.3409H64.8779V79.5035H75.3463V72.3409Z" fill="#CBE4DE"/>
<path d="M156.89 72.3409H85.8154V79.5035H156.89V72.3409Z" fill="#CBE4DE"/>
<path d="M134.851 87.768H105.099V94.9306H134.851V87.768Z" fill="#CBE4DE"/>
<path d="M94.6303 87.768H64.8779V94.9306H94.6303V87.768Z" fill="#CBE4DE"/>
<path d="M54.4098 87.768H43.9414V94.9306H54.4098V87.768Z" fill="#CBE4DE"/>
<path d="M236.781 87.768H226.312V94.9306H236.781V87.768Z" fill="#CBE4DE"/>
<path d="M215.844 87.768H144.769V94.9306H215.844V87.768Z" fill="#CBE4DE"/>
</svg>
